<?xml version="1.0" encoding="utf-8"?><!-- Uploaded to: SVG Repo, www.svgrepo.com, Generator: SVG Repo Mixer Tools -->
<svg width="800px" height="800px" viewBox="0 0 500 500" id="Layer_2" data-name="Layer 2" xmlns="http://www.w3.org/2000/svg"><defs><style>.cls-1{fill:#2d140a;}.cls-1,.cls-2,.cls-3,.cls-4{fill-rule:evenodd;}.cls-2{fill:#fced8d;}.cls-3{fill:#eaa5ab;}.cls-4{fill:#ee4861;}</style></defs><title>icon</title><path class="cls-1" d="M91.57,108.08c30.7-35.69,76.32-58.15,125.07-65.65,38.39-5.91,78.8-2.54,115.43,11C368.94,67,402,90.82,425.38,125.75c25.9,38.67,36.92,88.83,30.85,155.51q-1.26,14-3.61,26.71c-11.45,62.36-41.5,101.33-82.8,125.54-40.89,23.95-85.68,30.17-140.93,25.33-12.42-1.09-25-2.78-37.65-5-29.89-5.29-53.83-15.94-74.12-32C86.31,397.31,61.41,366.64,51,328.36,40.61,290.55,39.6,249,46.71,210.29s22.44-75,44.72-102Z"/><path class="cls-2" d="M219.33,60.12C174.65,67,133,87.44,105.07,119.85c-20.35,24.79-34.38,58.11-41,94.05-6.66,36.28-5.71,75.13,4,110.52C89,401,164,438.55,241.85,442.13c112.64,5.17,180.93-49.29,196.77-161.81,5.68-62.46-4.18-108.91-28-144.5-21.19-31.64-51.2-53.26-84.72-65.62C292.13,57.76,254.82,54.66,219.33,60.12Z"/><path class="cls-1" d="M160.48,173.7h34.44c5.75,0,10.46.52,10.46,6.27V217A27.77,27.77,0,0,1,177.7,244.7h0A27.76,27.76,0,0,1,150,217V180C150,174.22,154.72,173.7,160.48,173.7Z"/><path class="cls-2" d="M185,181.65h9.22c1.54,0,2.8.15,2.8,1.68v9.92a7.44,7.44,0,0,1-7.41,7.41h0a7.43,7.43,0,0,1-7.41-7.41v-9.92C182.23,181.79,183.49,181.65,185,181.65Z"/><path class="cls-1" d="M117.54,169.81h84.33a7.91,7.91,0,0,1,7.9,7.89h0a7.92,7.92,0,0,1-7.9,7.9H117.54a7.92,7.92,0,0,1-7.89-7.9h0A7.91,7.91,0,0,1,117.54,169.81Z"/><path class="cls-1" d="M322.61,172.47h33.08c5.53,0,10.06.5,10.06,6v35.59a26.68,26.68,0,0,1-26.6,26.59h0a26.67,26.67,0,0,1-26.59-26.59V178.5C312.56,173,317.08,172.47,322.61,172.47Z"/><path class="cls-2" d="M346.2,180.11h8.85c1.48,0,2.69.14,2.69,1.62v9.52a7.14,7.14,0,0,1-7.12,7.12h0a7.13,7.13,0,0,1-7.11-7.12v-9.52C343.51,180.25,344.72,180.11,346.2,180.11Z"/><path class="cls-1" d="M281.36,168.73h81a7.6,7.6,0,0,1,7.58,7.58h0a7.6,7.6,0,0,1-7.58,7.59h-81a7.61,7.61,0,0,1-7.59-7.59h0A7.6,7.6,0,0,1,281.36,168.73Z"/><path class="cls-3" d="M373.09,266.27c16,3,25.9,13.43,28,22,5.87,23.52-72.55,14.18-77.46,10.55C301.33,282.3,344.93,261,373.09,266.27Z"/><path class="cls-1" d="M345.56,265.2a4.26,4.26,0,1,1,8.13,2.54l-8,25.48a4.26,4.26,0,1,1-8.13-2.54Z"/><path class="cls-1" d="M371.64,263.55a4.25,4.25,0,0,1,7.77,3.47l-13.23,29.43a4.25,4.25,0,0,1-7.77-3.46Z"/><path class="cls-3" d="M170.26,266.27c16,3,25.91,13.43,28.05,22,5.86,23.52-72.55,14.18-77.46,10.55C98.51,282.3,142.11,261,170.26,266.27Z"/><path class="cls-1" d="M142.73,265.21a4.26,4.26,0,0,1,8.14,2.53l-8,25.48a4.26,4.26,0,1,1-8.13-2.54Z"/><path class="cls-1" d="M168.82,263.55a4.25,4.25,0,1,1,7.76,3.47l-13.22,29.43a4.25,4.25,0,0,1-7.77-3.46Z"/><path class="cls-1" d="M182.21,338.08c-1.12-3.19.62-7.65,3.9-8.75s7.83-.38,8.95,2.81c4.61,13.31,19.64,22.53,36,26.11,14.47,3.16,30,1.69,40.17-2.15-8.55-9.75-13.52-21.2-16.22-33.8-8.91-41.44,47-63.8,67.85-23.53,4.78,12.1,7.1,19.81,8.82,34.66,0,2.92,0,6.82-1.65,9.67C311.81,374.27,204.06,396.9,182.21,338.08Z"/><path class="cls-4" d="M296.09,351.12a74.84,74.84,0,0,0,20.8-12.21c5.09-4.23,4.38-5.35,3-11.37a104.46,104.46,0,0,0-8.22-23.28c-5.66-11-15.57-19.1-33-10.56-10.63,5.93-13.91,14.75-11.46,26.11,1.58,7.37,7.54,20.2,13.56,28.29C286.08,355.19,288.31,354,296.09,351.12Z"/><path class="cls-1" d="M289.73,320.58A3.44,3.44,0,0,1,291.5,316a3.61,3.61,0,0,1,4.73,1.72l13.32,30.06a3.45,3.45,0,0,1-1.77,4.61,3.61,3.61,0,0,1-4.73-1.72Z"/></svg>