<?xml version="1.0" encoding="utf-8"?><!-- Uploaded to: SVG Repo, www.svgrepo.com, Generator: SVG Repo Mixer Tools -->
<svg width="800px" height="800px" viewBox="0 0 500 500" id="Layer_2" data-name="Layer 2" xmlns="http://www.w3.org/2000/svg"><defs><style>.cls-1{fill:#2d140a;}.cls-1,.cls-2,.cls-3{fill-rule:evenodd;}.cls-2{fill:#fced8d;}.cls-3{fill:#eaa5ab;}</style></defs><title>icon</title><path class="cls-1" d="M89.76,108.15C104.39,91.15,124.1,77,145.94,66a257.06,257.06,0,0,1,74.78-23.8,235.58,235.58,0,0,1,57.93-1.67A220.64,220.64,0,0,1,334.07,53a185.28,185.28,0,0,1,51.24,28.8,192.58,192.58,0,0,1,40.19,43.82c12.85,19.19,22,41.19,27.18,66.62,5.11,25.11,6.33,53.55,3.38,85.93q-.63,7-1.48,13.25-.88,6.48-2,12.77c-9.82,53.51-36.88,93.7-74.18,120-39.82,28-91.19,40-145.53,35.28q-8.36-.74-18-2t-18.37-2.83a178.54,178.54,0,0,1-40.37-11.91,149.6,149.6,0,0,1-33.53-20.12A229.35,229.35,0,0,1,79,377.39C68,362,59.25,345.11,54.31,327a338.58,338.58,0,0,1-11.19-62.77c-1.43-18.78-.94-37.66,2.33-55.46a249.2,249.2,0,0,1,16.62-54.93,193.9,193.9,0,0,1,27.41-45.35Z"/><path class="cls-2" d="M154.84,83.55c-19.59,9.82-37.18,22.4-50.09,37.39l-.1.1A174.3,174.3,0,0,0,80,161.9a229.08,229.08,0,0,0-15.27,50.5c-2.93,15.95-3.36,33.15-2,50.42a316.3,316.3,0,0,0,10.44,58.75c4.29,15.69,12,30.61,21.84,44.31a209.31,209.31,0,0,0,39.79,41.23,130.9,130.9,0,0,0,29.34,17.61,159.53,159.53,0,0,0,36,10.57q9.24,1.63,17.38,2.72t17,1.86c49.71,4.36,96.46-6.45,132.43-31.78,33.31-23.45,57.51-59.5,66.34-107.62q1.05-5.69,1.88-11.8t1.4-12.35c2.75-30.25,1.64-56.69-3.08-79.87-4.66-22.88-12.84-42.61-24.32-59.74A172.5,172.5,0,0,0,373,97.3a165.4,165.4,0,0,0-45.88-25.78,201.07,201.07,0,0,0-50.46-11.39,216.2,216.2,0,0,0-53.06,1.58A236.8,236.8,0,0,0,154.84,83.55Z"/><path class="cls-1" d="M137.05,214.48a11.82,11.82,0,0,1-23-5.27c2.88-12.42,9-21.5,17.18-27.75,8.89-6.79,20-9.93,31.81-10.19,11.67-.26,22.13,2.09,30.93,8.28s15.4,15.83,19.17,30a11.81,11.81,0,0,1-22.85,6c-2.22-8.36-5.62-13.69-9.92-16.72s-10.08-4.17-16.87-4c-7,.15-13.26,1.81-17.93,5.37C141.58,203.25,138.58,207.89,137.05,214.48Z"/><path class="cls-1" d="M311.78,215.44a11.82,11.82,0,0,1-23-5.28c2.88-12.42,9-21.49,17.17-27.74,8.9-6.79,20-9.93,31.82-10.19,11.67-.26,22.13,2.09,30.93,8.28s15.4,15.83,19.17,30.05a11.81,11.81,0,0,1-22.85,6c-2.22-8.36-5.62-13.69-9.93-16.72s-10.07-4.17-16.86-4c-7,.16-13.26,1.81-17.93,5.38C316.31,204.21,313.31,208.85,311.78,215.44Z"/><path class="cls-1" d="M203.21,320.87a11.82,11.82,0,0,1,23-5.28c1.53,6.59,4.53,11.23,8.47,14.24,4.67,3.57,11,5.22,17.94,5.38,6.79.15,12.55-1,16.86-4s7.7-8.36,9.92-16.73a11.82,11.82,0,1,1,22.86,6c-3.77,14.21-10.38,23.85-19.18,30s-19.26,8.53-30.93,8.27c-11.83-.26-22.91-3.39-31.81-10.18C212.19,342.37,206.09,333.29,203.21,320.87Z"/><path class="cls-3" d="M378.87,241.39c21.25,4,34.38,17.82,37.22,29.22,7.78,31.22-96.29,18.83-102.81,14C283.63,262.67,341.5,234.4,378.87,241.39Z"/><path class="cls-1" d="M342.33,240a5.65,5.65,0,0,1,10.79,3.37l-10.64,33.81a5.66,5.66,0,0,1-10.8-3.36Z"/><path class="cls-1" d="M376.94,237.78a5.64,5.64,0,1,1,10.31,4.6L369.7,281.45a5.64,5.64,0,0,1-10.31-4.6Z"/><path class="cls-3" d="M161.52,243.31c21.26,4,34.38,17.82,37.23,29.22,7.78,31.22-96.29,18.83-102.81,14C66.29,264.59,124.15,236.32,161.52,243.31Z"/><path class="cls-1" d="M125,241.89a5.66,5.66,0,0,1,10.8,3.37l-10.65,33.81a5.65,5.65,0,0,1-10.79-3.36Z"/><path class="cls-1" d="M159.6,239.7a5.64,5.64,0,1,1,10.31,4.6l-17.56,39.07a5.64,5.64,0,1,1-10.3-4.6Z"/></svg>