<svg version="1.2" xmlns="http://www.w3.org/2000/svg" viewBox="0 0 305 277" width="305" height="277">
	<title>Vertical-cw-rgb</title>
	<style>
		.s0 { fill: #a238ff } 
		.s1 { fill: none } 
		.s2 { fill: #ffffff } 
	</style>
	<g>
		<path class="s0" d="m21.9 115.7c4.4 0 8-14.5 8-32.4 0-17.9-3.6-32.4-8-32.4-4.4 0-8 14.5-8 32.4 0 17.9 3.6 32.4 8 32.4z"/>
		<path class="s0" d="m256.8 18c-4.2 0-7.9 9.3-10.5 24.2-4.2-25.5-10.9-42.2-18.5-42.2-9 0-16.9 23.5-20.6 57.7-3.7-24.8-9.2-40.7-15.3-40.7-8.6 0-16 31.2-18.7 74.7-5.1-22.3-12.5-36.3-20.7-36.3-8.2 0-15.6 14-20.7 36.3-2.8-43.5-10.1-74.7-18.8-74.7-6.2 0-11.7 15.9-15.3 40.8-3.7-34.3-11.5-57.8-20.6-57.8-7.6 0-14.4 16.7-18.5 42.3-2.6-14.9-6.3-24.3-10.5-24.3-7.8 0-14.1 32.5-14.1 72.5 0 40 6.3 72.4 14.1 72.4 3.2 0 6.2-5.5 8.5-14.7 3.7 33.8 11.5 57 20.5 57 7 0 13.2-13.9 17.4-35.9 2.9 41.8 10.1 71.5 18.5 71.5 5.3 0 10.1-11.8 13.7-30.9 4.3 39.5 14.2 67.2 25.8 67.2 11.6 0 21.5-27.7 25.8-67.2 3.6 19.1 8.4 30.9 13.7 30.9 8.4 0 15.6-29.7 18.5-71.5 4.2 22 10.4 35.9 17.4 35.9 9 0 16.8-23.2 20.5-57 2.4 9.2 5.3 14.7 8.5 14.7 7.8 0 14.1-32.4 14.1-72.4-0.2-40-6.5-72.5-14.2-72.5z"/>
		<path class="s0" d="m283 115.7c4.4 0 8-14.5 8-32.4 0-17.9-3.6-32.4-8-32.4-4.4 0-8 14.5-8 32.4 0 17.9 3.6 32.4 8 32.4z"/>
	</g>
	<path fill-rule="evenodd" class="s1" d="m0 305.1h304.8v52.4h-304.8z"/>
	<g>
		<path class="s2" d="m57.1 357.5h43.1v-14.1h-22.7v-6.5h21.4v-11.6h-21.4v-6.1h22.8v-14.1h-43.2z"/>
		<path class="s2" d="m105.2 357.5h43.1v-14.1h-22.8v-6.5h21.4v-11.6h-21.4v-6.1h22.8v-14.1h-43.1z"/>
		<path class="s2" d="m304.8 357.5c-2.9-8-7-16.6-12.6-26.1 6.5-1.9 10.3-6 10.3-12.2 0-9.5-8.8-14-22.7-14h-28.6v52.4h20.4v-21.7c4.5 7.6 7.9 14.8 10.1 21.7h23.1zm-33-29v-9.3h7.1c3 0 4.7 1.6 4.7 4.6 0 3-1.7 4.6-4.7 4.6h-7.1z"/>
		<path class="s2" d="m203.3 357.5h43.1v-14.1h-22.8v-6.5h21.4v-11.6h-21.4v-6.1h22.8v-14.1h-43.1z"/>
		<path class="s2" d="m153.2 319.3h21.1c-8.7 7.1-15.9 15.2-21.5 24.1v14.1h46.3v-14.1h-23.1c5.3-7.7 12.7-15.4 23.2-24.1v-14.1h-45.9v14.1z"/>
		<path class="s2" d="m26.3 305.1h-26.3v52.4h26.3c16.3 0 27.8-10.8 27.8-26.2-0.1-15.4-11.6-26.2-27.8-26.2zm-1.1 38.2h-4.8v-24.1h4.8c5.1 0 7.8 3.4 7.8 12 0 8.7-2.7 12.1-7.8 12.1z"/>
	</g>
</svg>