<?xml version="1.0" encoding="UTF-8"?>
<svg version="1.1" xmlns="http://www.w3.org/2000/svg" width="939" height="940">
<path d="M0 0 C1.41027019 0.20102636 2.82059159 0.40169379 4.23095703 0.60205078 C53.4764421 7.68992461 101.81897694 21.71097363 145.97851562 44.94433594 C148.27242874 46.14226834 150.58097448 47.30927189 152.890625 48.4765625 C189.22578553 66.97963809 225.67058632 91.5812882 254.07666016 121.07958984 C255.90415488 122.90430087 257.79185007 124.57377563 259.76171875 126.2421875 C263.9291894 129.86304956 267.69924491 133.75543709 271.4375 137.8125 C272.08928223 138.51463623 272.74106445 139.21677246 273.41259766 139.94018555 C275.27994594 141.95568824 277.14101443 143.97678567 279 146 C279.87527344 146.94875 280.75054688 147.8975 281.65234375 148.875 C286.99705588 154.73633633 292.06328985 160.79206748 297 167 C297.44230957 167.54849609 297.88461914 168.09699219 298.34033203 168.66210938 C314.88302806 189.25619452 329.47604783 211.76289501 342 235 C342.48339844 235.88075195 342.96679688 236.76150391 343.46484375 237.66894531 C394.35102555 330.55274858 408.51300945 440.81337598 379.96875 578.375 C364.58071247 630.84568534 341.10675165 681.92913789 307.37304688 725.22998047 C306.05051504 726.93488014 304.74863217 728.653416 303.453125 730.37890625 C294.60791543 742.11767042 284.94321513 753.1821502 275 764 C274.45472656 764.59570801 273.90945313 765.19141602 273.34765625 765.80517578 C265.2396349 774.64335497 256.96273424 783.03036651 248 791 C247.11054687 791.82757812 246.22109375 792.65515625 245.3046875 793.5078125 C238.77956221 799.57636926 231.95824499 805.1162131 224.89648438 810.53613281 C222.9768524 812.01786728 221.07358806 813.51879597 219.171875 815.0234375 C155.99561175 864.65695232 80.17205158 894.64630672 1 906 C-0.23395508 906.17934082 -1.46791016 906.35868164 -2.73925781 906.54345703 C-40.53253231 911.73268902 -81.27886733 911.55779993 -119 906 C-120.41174988 905.79907758 -121.82353535 905.59840502 -123.23535156 905.39794922 C-166.80966879 899.1267105 -208.88200953 887.24042239 -249 869 C-249.91201172 868.59072266 -250.82402344 868.18144531 -251.76367188 867.75976562 C-287.85499908 851.48328473 -321.73623966 829.49205949 -352 804 C-352.51175781 803.57315918 -353.02351562 803.14631836 -353.55078125 802.70654297 C-368.51177899 790.21375279 -383.39157628 776.98492808 -396.1015625 762.17578125 C-398.26745005 759.69347802 -400.50876957 757.28944855 -402.75 754.875 C-407.9915491 749.11957354 -412.78918983 743.08250132 -417.52734375 736.90966797 C-419.03708 734.95191648 -420.5640426 733.00858152 -422.09375 731.06640625 C-434.25418953 715.52899613 -445.15984854 699.0978807 -455 682 C-455.3697998 681.36723145 -455.73959961 680.73446289 -456.12060547 680.08251953 C-495.90474913 611.81635492 -516.29483587 533.12626676 -516.1875 454.25 C-516.18656342 453.35271179 -516.18562683 452.45542358 -516.18466187 451.53094482 C-516.07238862 401.58317758 -508.20090326 352.2902145 -492 305 C-491.61086426 303.86272461 -491.22172852 302.72544922 -490.82080078 301.55371094 C-472.82084483 249.65543565 -445.17930242 202.07720486 -410 160 C-409.56494141 159.47857422 -409.12988281 158.95714844 -408.68164062 158.41992188 C-396.16215964 143.46364488 -382.97464542 128.56564126 -368.140625 115.86328125 C-365.66813514 113.71113223 -363.27728643 111.48019281 -360.875 109.25 C-355.05649253 103.94583574 -348.93505861 99.10725726 -342.69384766 94.31298828 C-341.17059563 93.13223743 -339.66787481 91.92511278 -338.16796875 90.71484375 C-321.35184371 77.30335141 -302.77659685 65.46130499 -284 55 C-283.13971191 54.51257324 -282.27942383 54.02514648 -281.39306641 53.52294922 C-231.47965234 25.30197253 -176.66997484 8.02040176 -120 0 C-118.87899902 -0.16516113 -117.75799805 -0.33032227 -116.60302734 -0.50048828 C-78.75384485 -5.84904293 -37.78824522 -5.59211766 0 0 Z M-247.1875 254.6875 C-247.9822171 254.76759308 -248.7769342 254.84768616 -249.59573364 254.9302063 C-276.44550361 257.6663783 -303.31660509 261.53489143 -329.8125 266.6875 C-331.20456665 266.95421509 -331.20456665 266.95421509 -332.62475586 267.22631836 C-345.86374912 269.97124719 -356.30386804 275.43275334 -364.4296875 286.46875 C-371.13314159 297.27431779 -373.60408494 308.52519858 -370.8125 320.9375 C-367.83396498 331.95115273 -361.84480885 341.22106228 -352.0625 347.3125 C-337.0905586 355.69861025 -323.85580542 354.47078252 -307.60220337 351.29382324 C-275.32229743 345.02180328 -242.79940353 341.19296679 -210 339 C-209.3138562 338.95194214 -208.6277124 338.90388428 -207.92077637 338.85437012 C-192.00666041 337.76380653 -176.06945956 337.75605848 -160.125 337.75 C-159.41289745 337.74941086 -158.70079491 337.74882172 -157.96711349 337.74821472 C-132.21702462 337.73323017 -106.64693382 338.56040229 -81 341 C-79.87371185 341.10538086 -79.87371185 341.10538086 -78.72467041 341.21289062 C-1.63787226 348.48791603 74.82365809 367.20753853 221.42578125 430.265625 C232.11682189 435.45340866 243.58776992 434.77390823 254.6875 431 C266.77594408 425.96558745 275.05331758 415.87900496 280 404 C283.60343616 393.08370809 282.19684972 382.03637367 277.4453125 371.71875 C269.8419367 357.41618363 257.50646569 351.28557431 243.5 344.4375 C242.61252075 343.99935974 241.7250415 343.56121948 240.81066895 343.10980225 C224.10194377 334.8610252 207.23493763 327.08395577 190 320 C189.32547791 319.72236816 188.65095581 319.44473633 187.95599365 319.15869141 C109.0159512 286.76683119 25.95214929 265.20957159 -69.0625 254.8125 C-69.81545349 254.73359528 -70.56840698 254.65469055 -71.34417725 254.57339478 C-98.85219892 251.72603353 -126.39131623 250.65413568 -154.03173828 250.73925781 C-157.7550231 250.75065116 -161.47802166 250.74384849 -165.20129681 250.73237896 C-192.60078144 250.66098703 -219.92253247 251.8815805 -247.1875 254.6875 Z M-231.80206299 411.74676514 C-234.1143812 412.01317841 -236.42784446 412.26731845 -238.74169922 412.52001953 C-257.17417169 414.55483955 -275.4506411 417.26208281 -293.6875 420.625 C-294.47955841 420.77102661 -295.27161682 420.91705322 -296.087677 421.06750488 C-319.82740268 424.82928339 -319.82740268 424.82928339 -338.53125 438.84765625 C-344.30451009 447.30793898 -345.85566201 455.90318826 -345 466 C-342.84308252 475.69313518 -337.75487148 483.57390425 -329.6875 489.375 C-317.12785795 497.05152146 -305.21133142 495.0720831 -291.51217651 492.29382324 C-252.42381478 484.41248858 -212.88966045 479.76101101 -173 479 C-171.93491211 478.97808594 -170.86982422 478.95617187 -169.77246094 478.93359375 C-90.26848366 477.54000957 -11.03403381 490.50380085 155.97070312 556.08422852 C157.08181709 556.6508168 157.08181709 556.6508168 158.21537781 557.22885132 C159.59554122 557.93269397 160.97249202 558.64289208 162.34529114 559.36099243 C171.3784416 563.94833221 179.57257023 565.10263035 189.4375 562.375 C195.23715677 560.47946998 199.58158363 558.19597894 204 554 C204.55300781 553.47535156 205.10601563 552.95070313 205.67578125 552.41015625 C211.58893614 546.17419886 214.54809986 538.16545103 215.09765625 529.640625 C214.68269325 518.42002559 210.11192635 509.60045096 202.24462891 501.87133789 C197.73509953 498.11176179 192.50267228 495.56737951 187.3125 492.875 C186.06389881 492.21895705 184.815365 491.56278584 183.56689453 490.90649414 C150.97065139 473.88184856 116.81611822 459.7882492 82 448 C80.80971191 447.59330078 79.61942383 447.18660156 78.39306641 446.76757812 C21.59699398 427.47692642 -37.16634688 416.17097984 -96.83984375 410.76171875 C-97.53018204 410.69846909 -98.22052032 410.63521942 -98.93177795 410.5700531 C-112.0078453 409.42472418 -125.03426687 408.83494796 -138.16015625 408.796875 C-139.66781137 408.78985178 -141.17546619 408.78276497 -142.68312073 408.77561951 C-147.47625151 408.75621764 -152.26933391 408.75118503 -157.0625 408.75 C-157.8796624 408.74955814 -158.6968248 408.74911629 -159.53874969 408.74866104 C-183.72209105 408.74180427 -207.74997679 408.95948358 -231.80206299 411.74676514 Z M-225 553 C-226.09199707 553.1308197 -226.09199707 553.1308197 -227.20605469 553.26428223 C-248.33535651 555.82495676 -269.21117315 559.43230474 -290 564 C-290.86141602 564.1841748 -291.72283203 564.36834961 -292.61035156 564.55810547 C-303.05135809 566.82644622 -310.21973877 569.69655888 -316.4375 578.6875 C-320.58625735 585.23281473 -320.74682839 591.38408721 -320 599 C-317.37792916 607.88318392 -311.52548113 613.24921735 -303.8125 617.9375 C-293.80292626 620.72705334 -283.81622008 618.64181784 -273.91693115 616.29354858 C-249.15137004 610.45915104 -223.81348404 606.86553351 -198.43066406 605.16308594 C-196.17887428 605.01200161 -193.92967874 604.83953482 -191.6796875 604.6640625 C-111.8495356 598.97300121 -30.17451182 612.95348281 109.3125 672.875 C117.48844448 677.58729987 124.9000447 680.3632301 134.375 677.875 C142.11563966 675.03099501 148.02306032 670.36295125 152.04296875 663.12109375 C155.05778816 656.11482328 154.97163418 649.03724661 152.5 641.875 C147.40001906 630.9625989 137.49121095 626.05789904 127.25 620.8125 C125.81896987 620.06785476 124.38814627 619.32281251 122.95751953 618.57739258 C52.03003607 581.83001678 -24.20915107 559.7538171 -114 551 C-115.13912842 550.90428711 -116.27825684 550.80857422 -117.4519043 550.70996094 C-130.84551833 549.72066494 -144.26355204 549.75634783 -157.6875 549.75 C-159.61542892 549.74898788 -159.61542892 549.74898788 -161.58230591 549.74795532 C-182.86260038 549.76563836 -203.86943962 550.45322927 -225 553 Z " fill="#1ED760" transform="translate(529,17)"/>
</svg>
